# xmcd
#
# Track frame offsets: 
#        150
#        12675
#        29830
#        50157
#        71067
#        90327
#        110395
#        127937
#        144217
#        163777
#        184810
#
# Disc length: 2721 seconds
#
# Revision: 1
# Processed by: cddbd v1.5.2PL0 Copyright (c) Steve Scherf et al.
# Submitted via: ExactAudioCopy v1.0b3
#
DISCID=9a0a9f0b
DTITLE=Sean Chambers - Humble Spirits
DYEAR=2005
DGENRE=Rock
TTITLE0=Return To Groove
TTITLE1=Foolin'
TTITLE2=Rock Me Baby
TTITLE3=Tom Cat
TTITLE4=Loneliness
TTITLE5=Livin' Together [Ain't Always Easy]
TTITLE6=I Still Love You
TTITLE7=I'm Ready Now
TTITLE8=Time Passes
TTITLE9=Love Can Find A Way
TTITLE10=Humble Spirits
EXTD=
EXTT0=
EXTT1=
EXTT2=
EXTT3=
EXTT4=
EXTT5=
EXTT6=
EXTT7=
EXTT8=
EXTT9=
EXTT10=
PLAYORDER=
